<?xml version="1.0" encoding="utf-8"?>
<svg xmlns="http://www.w3.org/2000/svg" viewBox="25.0797 129.2727 458.4092 178.4092" width="458.409px" height="178.409px" preserveAspectRatio="none"><g id="object-0" transform="matrix(0.9168190360069274, 0, 0, 0.9168190360069274, -9.738617897033691, 43.45479583740234)"><path d="M 516.22 93.604 C 514.582 126.073 501.557 156.956 477.985 179.705 C 477.11 180.58 476.3 181.48 475.495 182.419 C 473.343 184.898 471.081 187.268 468.819 189.647 C 466.945 191.625 465.117 193.632 463.334 195.692 C 462.632 196.496 461.918 197.284 461.194 198.069 C 456.603 203.199 452.682 209.136 452.777 216.249 C 453.129 220.014 455.151 223.29 457.959 225.749 C 461.332 228.288 465.386 229.79 469.25 231.427 C 470.259 231.87 471.241 232.349 472.222 232.85 C 470.688 234.384 469.042 234.391 466.934 234.452 C 459.077 234.358 452.319 230.114 446.597 225.114 C 445.633 224.304 444.665 223.5 443.696 222.697 C 443.686 222.999 443.677 223.302 443.667 223.613 C 443.621 224.98 443.568 226.346 443.515 227.713 C 443.5 228.189 443.485 228.665 443.469 229.156 C 443.441 229.838 443.441 229.838 443.413 230.535 C 443.397 230.955 443.382 231.375 443.367 231.808 C 443.212 232.85 443.212 232.85 442.245 233.817 C 440.921 233.994 439.648 234.109 438.317 234.18 C 437.784 234.22 437.784 234.22 437.241 234.261 C 434.683 234.409 432.602 234.122 430.158 233.333 C 428.171 231.448 427.798 229.765 427.677 227.097 C 427.676 226.577 427.674 226.058 427.673 225.523 C 427.67 224.924 427.667 224.326 427.664 223.709 C 427.664 223.049 427.663 222.39 427.663 221.73 C 427.661 221.033 427.658 220.336 427.656 219.638 C 427.649 217.747 427.646 215.856 427.644 213.965 C 427.642 212.784 427.64 211.602 427.638 210.421 C 427.632 206.724 427.627 203.027 427.625 199.331 C 427.623 195.063 427.615 190.796 427.601 186.529 C 427.59 183.229 427.585 179.929 427.585 176.63 C 427.584 174.659 427.581 172.689 427.573 170.718 C 427.565 168.866 427.564 167.014 427.568 165.162 C 427.568 164.482 427.566 163.802 427.561 163.122 C 427.555 162.195 427.559 161.267 427.563 160.34 C 427.562 159.82 427.562 159.301 427.561 158.766 C 427.765 157.246 428.126 156.58 429.191 155.491 C 430.294 155.241 430.294 155.241 431.575 155.234 C 432.039 155.232 432.503 155.229 432.982 155.227 C 433.708 155.238 433.708 155.238 434.449 155.249 C 434.93 155.242 435.41 155.234 435.905 155.227 C 438.025 155.238 439.441 155.274 441.313 156.322 C 443.375 158.76 443.359 161.149 443.367 164.2 C 443.371 164.634 443.376 165.069 443.381 165.516 C 443.396 166.947 443.405 168.378 443.413 169.809 C 443.422 170.803 443.431 171.796 443.441 172.79 C 443.466 175.403 443.485 178.016 443.503 180.628 C 443.522 183.296 443.547 185.963 443.571 188.63 C 443.618 193.861 443.659 199.093 443.696 204.324 C 443.856 204.093 444.017 203.863 444.182 203.625 C 444.924 202.561 445.669 201.498 446.414 200.435 C 446.666 200.073 446.918 199.71 447.178 199.337 C 449.662 195.799 452.411 192.546 455.3 189.336 C 455.531 189.077 455.763 188.818 456.001 188.552 C 458.579 185.676 461.233 182.895 463.984 180.183 C 464.899 179.254 465.755 178.3 466.601 177.309 C 468.387 175.224 470.335 173.317 472.298 171.401 C 493.29 150.394 506.013 123.317 514.385 95.242 C 514.93 93.604 514.93 93.604 516.22 93.604 Z" style="fill: rgb(255, 255, 255);"/><path d="M 178.833 155.248 C 179.235 155.249 179.638 155.25 180.052 155.251 C 180.495 155.251 180.937 155.251 181.393 155.25 C 181.854 155.26 182.316 155.27 182.791 155.279 C 183.248 155.276 183.706 155.273 184.177 155.269 C 188.558 155.309 188.558 155.309 190.345 156.941 C 191.708 159.178 192.01 161.067 192.005 163.634 C 192.012 164.186 192.012 164.186 192.02 164.75 C 192.034 165.958 192.039 167.167 192.043 168.375 C 192.051 169.217 192.06 170.058 192.07 170.899 C 192.092 173.108 192.107 175.316 192.12 177.524 C 192.134 179.78 192.156 182.035 192.178 184.291 C 192.22 188.712 192.252 193.134 192.279 197.555 C 192.522 197.31 192.765 197.065 193.016 196.812 C 195.311 194.498 197.608 192.186 199.908 189.876 C 201.09 188.689 202.272 187.501 203.451 186.311 C 204.808 184.941 206.169 183.575 207.53 182.21 C 207.951 181.784 208.372 181.357 208.806 180.918 C 209.203 180.522 209.6 180.125 210.008 179.716 C 210.355 179.367 210.702 179.018 211.059 178.659 C 213.39 176.587 215.117 176.011 218.178 176.111 C 220.546 176.453 221.846 177.75 223.374 179.484 C 224.751 181.423 224.833 182.591 224.673 184.984 C 223.131 188.962 220.105 191.493 216.937 194.17 C 215.818 195.126 214.701 196.084 213.583 197.041 C 213.292 197.29 213 197.54 212.7 197.796 C 210.38 199.783 208.088 201.798 205.817 203.84 C 206.588 205.732 207.818 206.921 209.262 208.343 C 209.501 208.579 209.74 208.815 209.986 209.058 C 211.602 210.639 213.271 212.137 214.99 213.603 C 216.604 215.043 218.098 216.601 219.617 218.139 C 220.679 219.187 221.762 220.18 222.89 221.155 C 223.198 221.423 223.505 221.69 223.822 221.966 C 224.583 222.619 225.353 223.263 226.124 223.905 C 227.091 225.114 227.091 225.114 227.333 226.776 C 226.907 229.809 225.658 231.952 223.223 233.817 C 220.367 234.917 217.906 235.017 215.07 233.859 C 210.976 231.778 208.124 228.342 205.107 224.971 C 204.174 223.933 203.23 222.907 202.285 221.881 C 198.879 218.183 195.493 214.477 192.279 210.609 C 192.275 210.886 192.271 211.162 192.267 211.447 C 192.226 214.318 192.178 217.188 192.126 220.058 C 192.107 221.131 192.09 222.203 192.075 223.275 C 192.053 224.813 192.025 226.352 191.996 227.89 C 191.988 228.613 191.988 228.613 191.979 229.349 C 191.969 229.795 191.96 230.24 191.95 230.699 C 191.944 231.092 191.937 231.484 191.93 231.889 C 191.796 232.85 191.796 232.85 190.829 233.817 C 186.712 234.738 181.958 235.102 178.258 232.85 C 176.445 230.917 176.263 229.146 176.256 226.569 C 176.253 225.964 176.251 225.358 176.248 224.735 C 176.247 224.063 176.247 223.391 176.246 222.718 C 176.244 222.012 176.241 221.305 176.239 220.598 C 176.232 218.677 176.229 216.756 176.227 214.835 C 176.226 213.635 176.224 212.436 176.222 211.236 C 176.215 207.483 176.21 203.731 176.209 199.978 C 176.206 195.644 176.198 191.31 176.184 186.976 C 176.173 183.627 176.169 180.278 176.168 176.929 C 176.167 174.928 176.164 172.928 176.156 170.927 C 176.148 169.045 176.147 167.164 176.151 165.282 C 176.151 164.592 176.149 163.901 176.145 163.21 C 176.138 162.268 176.142 161.325 176.146 160.383 C 176.146 159.855 176.145 159.328 176.144 158.784 C 176.388 156.941 176.94 155.682 178.833 155.248 Z" style="fill: rgb(255, 255, 255);"/><path d="M 313.787 155.279 C 314.241 155.27 314.694 155.26 315.161 155.25 C 317.92 155.252 319.768 155.431 321.856 157.425 C 322.806 159.652 322.969 161.728 322.977 164.117 C 322.982 164.485 322.986 164.854 322.991 165.233 C 323.006 166.442 323.015 167.65 323.023 168.859 C 323.032 169.7 323.041 170.542 323.051 171.383 C 323.076 173.591 323.095 175.799 323.113 178.007 C 323.132 180.263 323.157 182.519 323.181 184.774 C 323.228 189.196 323.269 193.617 323.306 198.038 C 324.761 196.596 326.213 195.152 327.665 193.706 C 328.157 193.216 328.65 192.727 329.143 192.238 C 331.721 189.682 334.27 187.122 336.622 184.352 C 337.868 182.907 339.213 181.559 340.561 180.21 C 340.829 179.935 341.097 179.661 341.374 179.379 C 343.433 177.312 344.886 176.147 347.904 176.1 C 350.844 176.165 352.302 177.287 354.401 179.273 C 355.499 181.104 355.969 182.85 355.7 184.984 C 354.457 187.584 352.893 189.459 350.835 191.451 C 350.558 191.723 350.281 191.996 349.996 192.277 C 347.932 194.281 345.766 196.118 343.511 197.904 C 341.028 199.932 338.703 202.137 336.36 204.324 C 336.872 204.834 336.872 204.834 337.393 205.355 C 338.315 206.276 339.232 207.2 340.147 208.128 C 342.557 210.563 344.971 212.944 347.581 215.167 C 348.769 216.21 349.861 217.336 350.967 218.464 C 351.887 219.366 352.846 220.199 353.827 221.035 C 358.018 224.711 358.018 224.711 358.223 226.536 C 358.044 228.894 357.231 230.546 355.7 232.366 C 353.616 234.119 351.652 234.884 348.931 234.784 C 343.72 234.133 340.081 229.594 336.88 225.788 C 335.462 224.152 333.975 222.582 332.492 221.004 C 329.322 217.623 326.272 214.17 323.306 210.609 C 323.302 210.886 323.298 211.162 323.294 211.447 C 323.253 214.318 323.205 217.188 323.153 220.058 C 323.134 221.131 323.117 222.203 323.102 223.275 C 323.08 224.813 323.052 226.352 323.023 227.89 C 323.014 228.613 323.014 228.613 323.006 229.349 C 322.996 229.795 322.987 230.24 322.977 230.699 C 322.97 231.092 322.964 231.484 322.957 231.889 C 322.823 232.85 322.823 232.85 321.856 233.817 C 317.579 234.595 313.172 235.037 309.285 232.85 C 307.957 231.832 307.661 231.083 307.351 229.466 C 307.305 228.474 307.286 227.482 307.283 226.489 C 307.28 225.879 307.277 225.268 307.275 224.639 C 307.274 223.963 307.273 223.287 307.273 222.612 C 307.271 221.899 307.268 221.187 307.266 220.474 C 307.259 218.54 307.256 216.606 307.254 214.672 C 307.253 213.465 307.251 212.257 307.248 211.049 C 307.242 207.272 307.237 203.494 307.235 199.717 C 307.233 195.353 307.225 190.99 307.211 186.627 C 307.2 183.255 307.195 179.883 307.195 176.511 C 307.194 174.496 307.191 172.481 307.183 170.467 C 307.175 168.573 307.174 166.68 307.178 164.787 C 307.178 164.091 307.176 163.396 307.171 162.7 C 307.165 161.752 307.169 160.804 307.173 159.856 C 307.172 159.325 307.172 158.794 307.171 158.247 C 307.351 156.941 307.351 156.941 308.021 156.046 C 309.659 154.88 311.854 155.265 313.787 155.279 Z" style="fill: rgb(255, 255, 255);"/><path d="M 123.206 176.145 C 126.409 177.869 127.788 180.508 129.008 183.794 C 129.22 184.352 129.22 184.352 129.436 184.921 C 131.625 190.758 133.605 196.672 135.62 202.571 C 136.241 204.39 136.864 206.209 137.488 208.027 C 137.873 209.149 138.256 210.271 138.639 211.394 C 138.812 211.898 138.984 212.402 139.163 212.922 C 139.313 213.364 139.464 213.805 139.62 214.261 C 140.025 215.346 140.489 216.355 141.029 217.378 C 143.458 211.079 145.23 204.588 147.073 198.099 C 148.14 194.353 149.212 190.607 150.295 186.866 C 150.553 185.974 150.808 185.082 151.061 184.188 C 151.372 183.091 151.691 181.996 152.013 180.901 C 152.183 180.314 152.352 179.726 152.526 179.122 C 153.166 177.614 153.64 177.077 155.05 176.281 C 158.098 175.432 161.485 175.356 164.478 176.372 C 166.287 177.683 167.023 178.959 167.381 181.169 C 167.751 204.154 153.17 234.92 137.705 251.344 C 134.89 254.043 132.113 256.204 128.096 256.33 C 125.026 256.131 123.154 255.243 121.055 253.006 C 119.832 251.47 119.186 250.345 119.272 248.322 C 120.478 246.31 121.87 244.618 123.472 242.913 C 125.893 240.289 128.166 237.574 130.392 234.784 C 130.89 234.165 130.89 234.165 131.399 233.534 C 133.124 231.425 133.124 231.425 134.26 228.982 C 133.766 228.847 133.766 228.847 133.263 228.71 C 127.018 225.654 125.051 217.772 122.804 211.714 C 122.552 211.044 122.301 210.373 122.049 209.703 C 121.527 208.308 121.006 206.912 120.487 205.516 C 119.828 203.744 119.165 201.974 118.501 200.204 C 117.982 198.823 117.466 197.441 116.95 196.059 C 116.707 195.407 116.463 194.755 116.218 194.103 C 111.77 182.229 111.77 182.229 112.019 178.699 C 112.709 177.904 112.709 177.904 113.621 177.339 C 113.918 177.146 114.216 176.954 114.522 176.755 C 117.088 175.376 120.449 175.218 123.206 176.145 Z" style="fill: rgb(255, 255, 255);"/><path d="M 373.287 175.193 C 373.692 175.183 374.097 175.173 374.515 175.163 C 376.952 175.148 378.837 175.227 380.842 176.765 C 382.593 180.116 382.492 183.491 382.476 187.191 C 382.472 188.298 382.477 189.404 382.484 190.51 C 382.503 193.653 382.504 196.795 382.503 199.938 C 382.503 201.867 382.512 203.797 382.527 205.726 C 382.532 206.81 382.526 207.894 382.52 208.978 C 382.529 212.574 382.665 215.306 384.71 218.345 C 387.397 220.901 389.689 220.856 393.201 220.853 C 393.637 220.853 394.072 220.853 394.521 220.852 C 397.491 220.825 400.217 220.641 403.083 219.796 C 403.862 218.236 403.653 216.528 403.665 214.813 C 403.67 214.398 403.675 213.983 403.68 213.555 C 403.695 212.179 403.707 210.803 403.719 209.427 C 403.729 208.474 403.739 207.522 403.749 206.569 C 403.776 204.059 403.8 201.549 403.823 199.039 C 403.848 196.479 403.875 193.918 403.901 191.358 C 403.953 186.333 404.002 181.307 404.05 176.281 C 406.018 175.183 407.79 175.154 410.003 175.163 C 410.357 175.155 410.712 175.148 411.078 175.14 C 413.599 175.137 415.383 175.508 417.587 176.765 C 419.33 178.902 419.247 180.9 419.233 183.531 C 419.236 183.964 419.24 184.398 419.243 184.844 C 419.252 186.275 419.25 187.705 419.247 189.135 C 419.25 190.132 419.252 191.128 419.255 192.125 C 419.259 194.213 419.258 196.301 419.253 198.39 C 419.248 201.062 419.258 203.734 419.272 206.406 C 419.281 208.464 419.281 210.523 419.278 212.581 C 419.278 213.566 419.281 214.551 419.287 215.536 C 419.294 216.915 419.289 218.294 419.28 219.674 C 419.285 220.078 419.29 220.483 419.295 220.899 C 419.252 224.283 418.262 226.316 415.895 228.801 C 408.426 234.506 396.859 235.182 387.839 234.061 C 381.4 233.109 375.11 231.185 370.794 226.017 C 367.635 221.572 366.74 216.859 366.766 211.475 C 366.766 211.088 366.765 210.701 366.765 210.302 C 366.766 209.031 366.769 207.76 366.773 206.488 C 366.774 205.604 366.775 204.719 366.775 203.834 C 366.777 201.511 366.782 199.189 366.787 196.866 C 366.792 194.494 366.794 192.122 366.797 189.749 C 366.802 185.099 366.81 180.448 366.821 175.798 C 368.997 175.227 371.044 175.207 373.287 175.193 Z" style="fill: rgb(255, 255, 255);"/><path d="M 75.757 157.908 C 77.248 159.237 78.02 159.993 78.392 161.954 C 78.521 164.872 77.896 166.65 76.241 169.029 C 73.863 168.795 71.545 168.493 69.2 168.032 C 64.73 167.206 60.348 167.328 56.206 169.361 C 54.17 171.199 53.484 173.323 53.269 175.992 C 53.234 176.723 53.206 177.454 53.184 178.185 C 53.168 178.562 53.151 178.938 53.134 179.327 C 53.095 180.245 53.063 181.164 53.033 182.083 C 53.67 182.07 54.307 182.058 54.963 182.045 C 57.323 182.001 59.682 181.973 62.043 181.95 C 63.065 181.938 64.086 181.922 65.108 181.901 C 66.576 181.871 68.043 181.858 69.512 181.847 C 69.969 181.835 70.427 181.822 70.899 181.809 C 72.084 181.809 73.15 181.827 74.307 182.083 C 76.123 184.157 76.31 186.653 76.241 189.336 C 75.675 191.063 75.212 191.905 73.791 193.024 C 71.871 193.922 70.213 193.918 68.118 193.934 C 67.713 193.943 67.309 193.952 66.892 193.961 C 65.607 193.987 64.321 194.003 63.035 194.019 C 62.161 194.035 61.287 194.052 60.413 194.069 C 58.275 194.11 56.138 194.143 54 194.17 C 53.996 194.653 53.992 195.135 53.988 195.632 C 53.951 200.172 53.908 204.711 53.861 209.25 C 53.837 211.584 53.815 213.918 53.796 216.251 C 53.778 218.502 53.756 220.753 53.73 223.004 C 53.721 223.864 53.714 224.724 53.708 225.584 C 53.7 226.786 53.686 227.988 53.671 229.19 C 53.67 229.548 53.669 229.906 53.668 230.275 C 53.627 232.74 53.627 232.74 52.55 233.817 C 48.765 234.813 44.099 234.849 40.462 233.333 C 38.735 232.016 38.367 231.082 38.045 228.982 C 38.004 228.241 37.984 227.499 37.983 226.758 C 37.982 226.326 37.981 225.893 37.979 225.448 C 37.98 224.98 37.981 224.512 37.982 224.029 C 37.981 223.531 37.981 223.033 37.98 222.52 C 37.978 220.873 37.979 219.226 37.981 217.578 C 37.98 216.428 37.98 215.279 37.979 214.129 C 37.978 211.715 37.98 209.302 37.982 206.888 C 37.985 203.812 37.983 200.736 37.98 197.66 C 37.978 195.282 37.979 192.905 37.98 190.527 C 37.98 189.394 37.98 188.261 37.979 187.128 C 37.963 166.703 37.963 166.703 42.97 161.323 C 51.171 153.888 66.188 152.559 75.757 157.908 Z" style="fill: rgb(255, 255, 255);"/><path d="M 91.089 155.298 C 91.532 155.296 91.974 155.295 92.43 155.293 C 92.892 155.298 93.353 155.304 93.828 155.31 C 94.514 155.301 94.514 155.301 95.214 155.293 C 99.538 155.311 99.538 155.311 101.382 156.941 C 102.743 158.821 103.014 160.129 103.014 162.433 C 103.019 163.364 103.019 163.364 103.024 164.313 C 103.021 164.997 103.017 165.68 103.013 166.364 C 103.014 167.087 103.016 167.81 103.018 168.533 C 103.023 170.493 103.018 172.452 103.012 174.412 C 103.006 176.462 103.008 178.513 103.009 180.563 C 103.01 184.004 103.004 187.446 102.996 190.887 C 102.985 194.869 102.984 198.851 102.987 202.833 C 102.989 206.662 102.987 210.491 102.981 214.319 C 102.979 215.95 102.979 217.581 102.98 219.211 C 102.98 221.129 102.977 223.047 102.969 224.965 C 102.967 225.67 102.966 226.376 102.968 227.081 C 102.969 228.041 102.964 229 102.959 229.96 C 102.958 230.498 102.957 231.036 102.956 231.59 C 102.833 232.85 102.833 232.85 101.866 233.817 C 98.491 234.754 93.949 234.994 90.655 233.696 C 89.047 232.695 88.157 231.886 87.573 230.072 C 87.307 228.705 87.297 227.417 87.293 226.024 C 87.291 225.418 87.288 224.811 87.285 224.186 C 87.284 223.515 87.284 222.844 87.283 222.172 C 87.281 221.465 87.279 220.757 87.276 220.049 C 87.27 218.128 87.267 216.208 87.264 214.287 C 87.263 213.087 87.261 211.887 87.259 210.688 C 87.252 206.935 87.248 203.183 87.246 199.431 C 87.243 195.097 87.235 190.763 87.221 186.429 C 87.211 183.079 87.206 179.73 87.205 176.381 C 87.205 174.379 87.202 172.378 87.193 170.377 C 87.185 168.497 87.184 166.616 87.188 164.735 C 87.189 164.044 87.187 163.353 87.182 162.663 C 87.176 161.721 87.179 160.779 87.183 159.838 C 87.183 159.31 87.182 158.783 87.181 158.24 C 87.361 156.941 87.361 156.941 88.031 156.047 C 89.086 155.296 89.801 155.304 91.089 155.298 Z" style="fill: rgb(255, 255, 255);"/><path d="M 296.472 177.399 C 298.007 179.05 298.668 179.989 298.627 182.276 C 298.299 186.495 298.299 186.495 297.197 187.885 C 294.69 188.501 292.203 188.376 289.643 188.308 C 285.232 188.251 279.96 188.342 276.407 191.27 C 276.162 192.683 276.083 193.82 276.104 195.236 C 276.098 195.842 276.098 195.842 276.093 196.461 C 276.084 197.798 276.092 199.135 276.099 200.473 C 276.095 201.401 276.09 202.329 276.084 203.256 C 276.07 205.7 276.07 208.144 276.073 210.588 C 276.077 214.502 276.062 218.415 276.043 222.329 C 276.039 223.699 276.042 225.068 276.045 226.438 C 276.043 227.274 276.042 228.11 276.039 228.946 C 276.044 229.521 276.044 229.521 276.048 230.107 C 276.033 232.74 276.033 232.74 274.957 233.817 C 270.888 234.683 266.796 234.638 262.809 233.451 C 261.416 232.528 261.077 231.489 260.452 229.949 C 260.249 228.541 260.249 227.152 260.257 225.731 C 260.253 225.317 260.25 224.903 260.246 224.477 C 260.238 223.114 260.239 221.751 260.242 220.389 C 260.24 219.437 260.237 218.486 260.235 217.535 C 260.23 215.542 260.231 213.55 260.236 211.558 C 260.242 209.011 260.232 206.464 260.218 203.917 C 260.209 201.953 260.209 199.988 260.212 198.024 C 260.212 197.085 260.209 196.146 260.203 195.208 C 260.196 193.892 260.201 192.577 260.209 191.261 C 260.205 190.877 260.2 190.493 260.195 190.098 C 260.235 187.04 261.07 184.519 263.136 182.213 C 269.653 175.933 288.483 171.351 296.472 177.399 Z" style="fill: rgb(255, 255, 255);"/><path d="M 530.241 107.142 C 533.464 110.365 533.358 117.593 533.384 121.858 C 533.186 139.84 522.955 154.202 511.385 167.095 C 511.042 167.48 511.042 167.48 510.691 167.873 C 505.002 174.238 499.07 180.699 492.319 185.945 C 491.167 186.849 490.067 187.796 488.968 188.762 C 481.662 195.139 472.727 201.996 463.519 205.291 C 463.2 204.812 462.881 204.334 462.552 203.84 C 462.869 203.594 463.185 203.347 463.512 203.092 C 466.393 200.797 469.028 198.399 471.604 195.771 C 473.209 194.136 474.866 192.612 476.609 191.128 C 478.041 189.859 479.366 188.488 480.698 187.115 C 481.659 186.179 482.631 185.305 483.647 184.433 C 486.141 182.267 488.471 179.945 490.806 177.611 C 491.237 177.186 491.667 176.762 492.11 176.325 C 495.041 173.401 497.695 170.338 500.265 167.095 C 500.726 166.53 501.187 165.965 501.649 165.401 C 515.081 148.627 523.385 129.675 529.417 109.188 C 529.758 108.109 529.758 108.109 530.241 107.142 Z" style="fill: #F6B344;"/><path d="M 239.807 176.525 C 240.397 176.524 240.397 176.524 240.998 176.524 C 241.405 176.534 241.811 176.543 242.23 176.553 C 242.631 176.55 243.032 176.546 243.446 176.543 C 246.071 176.57 248.004 176.906 250.299 178.215 C 251.19 179.605 251.39 180.698 251.407 182.333 C 251.413 182.768 251.42 183.203 251.427 183.651 C 251.43 184.125 251.432 184.599 251.435 185.087 C 251.441 185.589 251.448 186.091 251.454 186.608 C 251.474 188.267 251.487 189.927 251.5 191.587 C 251.511 192.739 251.523 193.892 251.535 195.044 C 251.559 197.46 251.58 199.876 251.598 202.292 C 251.622 205.391 251.654 208.49 251.689 211.589 C 251.715 213.969 251.737 216.348 251.756 218.728 C 251.767 219.871 251.778 221.014 251.791 222.157 C 251.809 223.753 251.82 225.349 251.83 226.945 C 251.839 227.656 251.839 227.656 251.849 228.381 C 251.851 228.816 251.852 229.251 251.853 229.699 C 251.857 230.077 251.86 230.454 251.863 230.842 C 251.733 232.033 251.417 232.806 250.782 233.817 C 249.889 234.112 249.889 234.112 248.818 234.18 C 248.429 234.205 248.04 234.231 247.639 234.257 C 247.24 234.271 246.842 234.286 246.431 234.3 C 245.877 234.329 245.877 234.329 245.313 234.359 C 242.776 234.434 240.599 234.224 238.211 233.333 C 235.47 230.241 235.72 226.656 235.708 222.75 C 235.705 222.277 235.702 221.803 235.699 221.315 C 235.689 219.755 235.683 218.194 235.679 216.634 C 235.677 216.1 235.675 215.567 235.673 215.017 C 235.662 212.196 235.656 209.376 235.651 206.555 C 235.646 203.64 235.629 200.724 235.61 197.808 C 235.597 195.567 235.593 193.325 235.591 191.084 C 235.589 190.009 235.583 188.933 235.574 187.858 C 235.563 186.357 235.563 184.856 235.566 183.355 C 235.56 182.91 235.554 182.465 235.548 182.006 C 235.572 178.998 235.572 178.998 236.712 177.456 C 237.856 176.677 238.435 176.521 239.807 176.525 Z" style="fill: rgb(255, 255, 255);"/><path d="M 536.527 145.338 C 537.005 145.497 537.484 145.657 537.977 145.821 C 537.554 150.569 537.108 154.984 535.076 159.359 C 534.884 159.783 534.691 160.207 534.493 160.643 C 524.24 181.207 499.41 192.28 480.051 201.923 C 478.353 202.769 476.657 203.62 474.961 204.471 C 473.874 205.014 472.788 205.557 471.701 206.099 C 471.197 206.352 470.694 206.605 470.175 206.865 C 469.709 207.096 469.243 207.328 468.764 207.566 C 468.153 207.871 468.153 207.871 467.529 208.182 C 466.514 208.634 465.571 208.931 464.486 209.159 C 464.327 208.68 464.167 208.201 464.003 207.708 C 464.438 207.473 464.873 207.237 465.321 206.994 C 477.166 200.5 488.077 192.825 498.469 184.216 C 499.202 183.612 499.944 183.02 500.688 182.429 C 507.016 177.391 512.706 171.62 518.426 165.916 C 518.676 165.668 518.926 165.419 519.183 165.163 C 522.009 162.349 524.761 159.503 527.34 156.458 C 527.834 155.889 528.327 155.321 528.821 154.753 C 531.475 151.677 534.085 148.587 536.527 145.338 Z" style="fill: #F6B344;"/><path d="M 527.34 183.05 C 527.819 183.289 527.819 183.289 528.307 183.534 C 518.365 198.504 503.97 206.908 486.465 210.504 C 479.333 211.822 471.698 212.637 464.486 211.576 C 465.726 210.337 466.806 210.086 468.473 209.538 C 469.107 209.327 469.742 209.116 470.376 208.904 C 470.879 208.738 470.879 208.738 471.392 208.568 C 489.683 202.496 507.684 194.685 524.236 184.776 C 524.631 184.542 525.026 184.309 525.433 184.068 C 525.779 183.859 526.126 183.651 526.483 183.436 C 526.907 183.245 526.907 183.245 527.34 183.05 Z" style="fill: #F6B344;"/><path d="M 519.121 208.192 C 519.604 209.642 519.604 209.642 518.849 211.274 C 516.075 215.736 511.191 217.514 506.278 218.708 C 502.156 219.63 497.986 219.871 493.773 219.894 C 493.357 219.897 492.94 219.901 492.51 219.904 C 491.177 219.912 489.843 219.915 488.51 219.917 C 488.056 219.917 487.602 219.918 487.135 219.918 C 479.208 219.916 471.449 219.882 464.003 216.895 C 464.003 216.576 464.003 216.256 464.003 215.928 C 464.594 215.918 465.185 215.909 465.794 215.899 C 468.041 215.861 470.288 215.818 472.534 215.774 C 473.496 215.756 474.459 215.739 475.421 215.724 C 483.943 215.586 492.479 215.21 500.869 213.601 C 501.305 213.519 501.741 213.438 502.191 213.353 C 508.009 212.22 513.687 210.582 519.121 208.192 Z" style="fill: #F6B344;"/><path d="M 247.518 153.617 C 249.539 154.995 250.96 156.509 251.749 158.875 C 252.032 161.759 251.455 163.786 249.815 166.128 C 247.789 167.924 245.747 168.663 243.046 168.545 C 240.691 168.136 238.833 167.48 237.244 165.644 C 235.768 163.43 235.526 161.487 235.794 158.875 C 236.692 156.329 238.019 155.107 240.145 153.557 C 242.643 152.724 245.031 152.757 247.518 153.617 Z" style="fill: rgb(255, 255, 255);"/><path d="M 463.519 219.312 C 465.196 219.936 466.639 220.674 468.143 221.639 C 476.001 226.389 484.697 227.685 493.677 228.559 C 494.814 228.671 495.951 228.785 497.088 228.904 C 497.785 228.977 498.483 229.046 499.182 229.111 C 500.87 229.286 501.721 229.469 503.166 230.433 C 496.059 234.396 487.779 234.946 479.928 233.031 C 473.332 230.985 467.061 226.948 463.036 221.246 C 463.209 220.183 463.209 220.183 463.519 219.312 Z" style="fill: #F6B344;"/><path d="M 351.859 273.63 C 352.863 274.024 352.863 274.024 354.25 273.947 C 354.728 273.628 355.207 273.309 355.7 272.98 C 359.177 272.383 363.014 272.054 366.337 273.463 C 367.234 274.239 367.739 274.818 368.271 275.881 C 368.312 276.758 368.323 277.636 368.318 278.514 C 368.317 279.034 368.315 279.555 368.313 280.091 C 368.307 280.909 368.307 280.909 368.301 281.743 C 368.299 282.292 368.297 282.841 368.295 283.407 C 368.289 284.766 368.281 286.126 368.271 287.485 C 367.473 287.485 366.675 287.485 365.854 287.485 C 365.694 283.655 365.534 279.826 365.37 275.881 C 361.817 275.289 358.592 274.845 355.217 276.364 C 354.635 277.527 354.635 278.348 354.58 279.647 C 354.55 280.329 354.55 280.329 354.519 281.026 C 354.5 281.502 354.481 281.978 354.461 282.469 C 354.43 283.188 354.43 283.188 354.398 283.923 C 354.347 285.11 354.297 286.297 354.25 287.485 C 353.452 287.485 352.654 287.485 351.832 287.485 C 351.823 287.185 351.813 286.885 351.803 286.576 C 351.757 285.217 351.704 283.858 351.651 282.499 C 351.636 282.027 351.621 281.554 351.606 281.068 C 351.587 280.615 351.568 280.161 351.549 279.694 C 351.534 279.276 351.519 278.859 351.503 278.428 C 351.411 277.197 351.411 277.197 350.382 275.881 C 347.476 274.821 343.972 275.115 341.195 276.364 C 340.614 277.527 340.614 278.348 340.559 279.647 C 340.539 280.102 340.518 280.557 340.497 281.026 C 340.469 281.74 340.469 281.74 340.44 282.469 C 340.419 282.948 340.398 283.428 340.377 283.923 C 340.325 285.11 340.276 286.297 340.228 287.485 C 339.431 287.485 338.633 287.485 337.811 287.485 C 337.811 282.698 337.811 277.912 337.811 272.98 C 339.1 272.98 340.39 272.98 341.679 272.98 C 342.018 272.9 342.357 272.82 342.706 272.738 C 346.018 272.162 348.723 272.416 351.859 273.63 Z" style="fill: rgb(255, 255, 255);"/><path d="M 169.072 273.463 C 170.549 275.023 170.696 276.116 170.664 278.23 C 170.657 279.039 170.657 279.039 170.65 279.864 C 170.637 280.424 170.625 280.985 170.613 281.562 C 170.603 282.414 170.603 282.414 170.593 283.283 C 170.576 284.683 170.552 286.084 170.522 287.485 C 169.394 287.485 168.266 287.485 167.138 287.485 C 166.876 287.563 166.615 287.641 166.346 287.721 C 164.712 288.075 163.091 288.057 161.426 288.059 C 160.929 288.068 160.929 288.068 160.421 288.077 C 158.16 288.083 156.235 287.773 154.083 287.001 C 152.977 285.86 152.661 285.092 152.572 283.509 C 152.685 281.339 152.685 281.339 153.116 280.232 C 154.842 278.976 156.048 278.602 158.168 278.623 C 158.658 278.626 159.148 278.628 159.652 278.631 C 160.411 278.646 160.411 278.646 161.185 278.661 C 161.952 278.665 161.952 278.665 162.734 278.669 C 166.505 278.707 166.505 278.707 167.621 279.265 C 167.462 278.148 167.302 277.032 167.138 275.881 C 165.351 275.317 163.653 275.333 161.789 275.337 C 161.195 275.336 160.601 275.334 159.989 275.333 C 158.426 275.326 158.426 275.326 156.984 275.881 C 156.4 276.848 156.4 276.848 156.017 277.815 C 155.22 277.815 154.422 277.815 153.6 277.815 C 153.427 275.217 153.427 275.217 154.083 274.068 C 157.966 271.641 164.931 271.6 169.072 273.463 Z M 155.534 282.166 C 155.332 283.436 155.332 283.436 155.534 284.584 C 157.358 285.778 159.202 285.695 161.305 285.672 C 161.645 285.675 161.985 285.679 162.336 285.683 C 164.293 285.676 165.898 285.551 167.621 284.584 C 168.053 283.352 168.053 283.352 168.105 282.166 C 166.601 280.659 165.283 280.529 163.197 280.518 C 162.832 280.523 162.467 280.529 162.091 280.535 C 161.547 280.526 161.547 280.526 160.991 280.518 C 158.801 280.529 157.288 280.712 155.534 282.166 Z" style="fill: rgb(255, 255, 255);"/><path d="M 91.229 273.463 C 92.706 275.023 92.854 276.116 92.821 278.23 C 92.814 279.039 92.814 279.039 92.807 279.864 C 92.795 280.424 92.783 280.985 92.77 281.562 C 92.76 282.414 92.76 282.414 92.75 283.283 C 92.733 284.683 92.709 286.084 92.68 287.485 C 91.551 287.485 90.423 287.485 89.295 287.485 C 89.034 287.563 88.773 287.641 88.504 287.721 C 86.869 288.075 85.248 288.057 83.584 288.059 C 83.086 288.068 83.086 288.068 82.578 288.077 C 80.317 288.083 78.393 287.773 76.241 287.001 C 75.134 285.86 74.819 285.092 74.73 283.509 C 74.843 281.339 74.843 281.339 75.274 280.232 C 76.999 278.976 78.206 278.602 80.326 278.623 C 80.816 278.626 81.305 278.628 81.809 278.631 C 82.568 278.646 82.568 278.646 83.342 278.661 C 84.109 278.665 84.109 278.665 84.892 278.669 C 88.662 278.707 88.662 278.707 89.779 279.265 C 89.619 278.148 89.46 277.032 89.295 275.881 C 87.509 275.317 85.811 275.333 83.946 275.337 C 83.353 275.336 82.759 275.334 82.147 275.333 C 80.584 275.326 80.584 275.326 79.142 275.881 C 78.557 276.848 78.557 276.848 78.175 277.815 C 77.377 277.815 76.579 277.815 75.757 277.815 C 75.584 275.217 75.584 275.217 76.241 274.068 C 80.123 271.641 87.089 271.6 91.229 273.463 Z M 77.691 282.166 C 77.489 283.436 77.489 283.436 77.691 284.584 C 79.516 285.778 81.359 285.695 83.463 285.672 C 83.803 285.675 84.143 285.679 84.493 285.683 C 86.451 285.676 88.055 285.551 89.779 284.584 C 90.211 283.352 90.211 283.352 90.262 282.166 C 88.759 280.659 87.44 280.529 85.354 280.518 C 84.99 280.523 84.625 280.529 84.249 280.535 C 83.704 280.526 83.704 280.526 83.149 280.518 C 80.958 280.529 79.446 280.712 77.691 282.166 Z" style="fill: rgb(255, 255, 255);"/><path d="M 521.115 272.438 C 527.075 272.321 527.075 272.321 529.758 273.463 C 530.55 274.606 531.208 275.9 531.208 277.331 C 530.251 277.331 529.294 277.331 528.307 277.331 C 528.148 276.853 527.988 276.374 527.824 275.881 C 526.053 275.29 524.41 275.308 522.566 275.307 C 522.224 275.301 521.882 275.295 521.529 275.289 C 519.54 275.283 518.008 275.477 516.22 276.364 C 516.22 277.162 516.22 277.96 516.22 278.782 C 516.772 278.792 516.772 278.792 517.336 278.803 C 519.009 278.839 520.681 278.886 522.354 278.933 C 522.934 278.944 523.513 278.955 524.11 278.966 C 524.949 278.992 524.949 278.992 525.805 279.018 C 526.319 279.031 526.833 279.043 527.362 279.056 C 528.992 279.295 529.917 279.699 531.208 280.716 C 531.682 282.673 531.78 284.004 531.48 285.974 C 530.323 287.547 528.696 287.662 526.857 287.968 C 525.232 288.106 523.621 288.125 521.992 288.119 C 521.576 288.127 521.161 288.135 520.733 288.143 C 518.058 288.145 516.159 287.814 513.803 286.518 C 512.856 284.913 512.836 284.063 512.836 282.166 C 513.793 282.166 514.75 282.166 515.737 282.166 C 515.876 282.555 516.016 282.944 516.16 283.345 C 516.574 284.648 516.574 284.648 517.671 285.067 C 518.354 285.113 519.039 285.13 519.723 285.131 C 520.128 285.132 520.533 285.133 520.95 285.133 C 521.374 285.132 521.797 285.13 522.233 285.128 C 522.655 285.13 523.077 285.131 523.511 285.133 C 523.917 285.133 524.322 285.132 524.74 285.131 C 525.111 285.131 525.482 285.13 525.864 285.13 C 526.954 285.104 526.954 285.104 528.307 284.584 C 528.307 283.626 528.307 282.669 528.307 281.683 C 527.922 281.678 527.537 281.674 527.14 281.669 C 525.393 281.643 523.647 281.603 521.901 281.562 C 521.295 281.555 520.688 281.548 520.063 281.541 C 519.481 281.526 518.898 281.51 518.298 281.494 C 517.761 281.484 517.224 281.474 516.671 281.463 C 514.957 281.144 514.38 280.623 513.319 279.265 C 512.938 277.773 513.007 276.419 513.319 274.914 C 514.579 273.339 515.468 273.037 517.429 272.617 C 518.657 272.522 519.884 272.486 521.115 272.438 Z" style="fill: rgb(255, 255, 255);"/><path d="M 388.638 272.438 C 394.598 272.321 394.598 272.321 397.281 273.463 C 398.073 274.606 398.731 275.9 398.731 277.331 C 397.774 277.331 396.816 277.331 395.83 277.331 C 395.671 276.853 395.511 276.374 395.347 275.881 C 393.575 275.29 391.933 275.308 390.089 275.307 C 389.746 275.301 389.404 275.295 389.052 275.289 C 387.062 275.283 385.531 275.477 383.743 276.364 C 383.743 277.162 383.743 277.96 383.743 278.782 C 384.295 278.792 384.295 278.792 384.858 278.803 C 386.532 278.839 388.204 278.886 389.877 278.933 C 390.456 278.944 391.036 278.955 391.633 278.966 C 392.472 278.992 392.472 278.992 393.328 279.018 C 393.842 279.031 394.356 279.043 394.885 279.056 C 396.514 279.295 397.44 279.699 398.731 280.716 C 399.205 282.673 399.303 284.004 399.003 285.974 C 397.846 287.547 396.218 287.662 394.38 287.968 C 392.755 288.106 391.144 288.125 389.514 288.119 C 389.099 288.127 388.684 288.135 388.256 288.143 C 385.581 288.145 383.682 287.814 381.325 286.518 C 380.379 284.913 380.358 284.063 380.358 282.166 C 381.316 282.166 382.273 282.166 383.259 282.166 C 383.399 282.555 383.539 282.944 383.682 283.345 C 384.097 284.648 384.097 284.648 385.193 285.067 C 385.876 285.113 386.562 285.13 387.246 285.131 C 387.651 285.132 388.056 285.133 388.473 285.133 C 388.896 285.132 389.32 285.13 389.756 285.128 C 390.178 285.13 390.599 285.131 391.034 285.133 C 391.439 285.133 391.845 285.132 392.262 285.131 C 392.634 285.131 393.005 285.13 393.387 285.13 C 394.477 285.104 394.477 285.104 395.83 284.584 C 395.83 283.626 395.83 282.669 395.83 281.683 C 395.445 281.678 395.059 281.674 394.662 281.669 C 392.916 281.643 391.17 281.603 389.424 281.562 C 388.817 281.555 388.211 281.548 387.586 281.541 C 387.003 281.526 386.421 281.51 385.82 281.494 C 385.284 281.484 384.747 281.474 384.194 281.463 C 382.479 281.144 381.903 280.623 380.842 279.265 C 380.461 277.773 380.529 276.419 380.842 274.914 C 382.101 273.339 382.991 273.037 384.952 272.617 C 386.18 272.522 387.407 272.486 388.638 272.438 Z" style="fill: rgb(255, 255, 255);"/><path d="M 323.367 272.438 C 329.326 272.321 329.326 272.321 332.009 273.463 C 332.801 274.606 333.459 275.9 333.459 277.331 C 332.502 277.331 331.545 277.331 330.558 277.331 C 330.399 276.853 330.239 276.374 330.075 275.881 C 328.304 275.29 326.661 275.308 324.817 275.307 C 324.475 275.301 324.133 275.295 323.78 275.289 C 321.791 275.283 320.259 275.477 318.471 276.364 C 318.471 277.162 318.471 277.96 318.471 278.782 C 319.023 278.792 319.023 278.792 319.587 278.803 C 321.26 278.839 322.933 278.886 324.605 278.933 C 325.185 278.944 325.764 278.955 326.361 278.966 C 327.2 278.992 327.2 278.992 328.056 279.018 C 328.57 279.031 329.084 279.043 329.614 279.056 C 331.243 279.295 332.168 279.699 333.459 280.716 C 333.933 282.673 334.031 284.004 333.731 285.974 C 332.574 287.547 330.947 287.662 329.108 287.968 C 327.483 288.106 325.873 288.125 324.243 288.119 C 323.827 288.127 323.412 288.135 322.984 288.143 C 320.309 288.145 318.41 287.814 316.054 286.518 C 315.107 284.913 315.087 284.063 315.087 282.166 C 316.044 282.166 317.001 282.166 317.988 282.166 C 318.127 282.555 318.267 282.944 318.411 283.345 C 318.825 284.648 318.825 284.648 319.922 285.067 C 320.605 285.113 321.29 285.13 321.975 285.131 C 322.379 285.132 322.784 285.133 323.201 285.133 C 323.625 285.132 324.048 285.13 324.485 285.128 C 324.906 285.13 325.328 285.131 325.762 285.133 C 326.168 285.133 326.573 285.132 326.991 285.131 C 327.362 285.131 327.733 285.13 328.115 285.13 C 329.205 285.104 329.205 285.104 330.558 284.584 C 330.558 283.626 330.558 282.669 330.558 281.683 C 330.173 281.678 329.788 281.674 329.391 281.669 C 327.644 281.643 325.898 281.603 324.152 281.562 C 323.546 281.555 322.939 281.548 322.315 281.541 C 321.732 281.526 321.149 281.51 320.549 281.494 C 320.012 281.484 319.475 281.474 318.922 281.463 C 317.208 281.144 316.631 280.623 315.57 279.265 C 315.189 277.773 315.258 276.419 315.57 274.914 C 316.83 273.339 317.719 273.037 319.68 272.617 C 320.908 272.522 322.135 272.486 323.367 272.438 Z" style="fill: rgb(255, 255, 255);"/><path d="M 213.553 267.178 C 214.351 267.178 215.149 267.178 215.97 267.178 C 215.97 273.879 215.97 280.58 215.97 287.485 C 214.681 287.485 213.392 287.485 212.103 287.485 C 211.82 287.563 211.538 287.641 211.247 287.721 C 207.337 288.618 202.847 288.185 199.048 287.001 C 197.887 286.04 197.605 285.573 197.114 284.1 C 197.043 282.913 197.007 281.724 196.993 280.535 C 196.981 279.903 196.968 279.271 196.956 278.619 C 197.167 276.263 197.787 275.131 199.528 273.564 C 201.778 272.66 203.961 272.79 206.361 272.829 C 206.845 272.827 207.33 272.826 207.829 272.824 C 211.425 272.851 211.425 272.851 213.07 273.947 C 213.229 271.713 213.389 269.479 213.553 267.178 Z M 200.015 276.848 C 199.754 278.051 199.754 278.051 199.653 279.416 C 199.605 279.873 199.558 280.33 199.509 280.801 C 199.535 282.346 199.733 283.24 200.499 284.584 C 203.102 286.675 206.028 286.315 209.202 286.034 C 210.664 285.74 211.309 285.435 212.586 284.584 C 213.835 282.449 213.581 280.331 213.398 277.945 C 212.968 276.51 212.42 276.136 211.136 275.397 C 209.553 274.828 208.002 274.834 206.331 274.823 C 205.838 274.816 205.345 274.81 204.837 274.802 C 202.807 274.96 201.461 275.402 200.015 276.848 Z" style="fill: rgb(255, 255, 255);"/><path d="M 499.721 272.799 C 500.344 272.79 500.344 272.79 500.981 272.782 C 503.793 272.794 505.95 273.177 508.484 274.43 C 509.451 276.364 509.451 276.364 509.451 280.716 C 504.186 280.716 498.921 280.716 493.496 280.716 C 494.033 283.97 494.033 283.97 495.486 284.79 C 497.27 285.145 498.999 285.189 500.809 285.158 C 501.155 285.158 501.5 285.157 501.857 285.157 C 503.384 285.144 504.609 285.07 506.067 284.584 C 506.386 284.105 506.705 283.626 507.034 283.133 C 508.303 282.801 508.303 282.801 509.451 282.65 C 509.391 284.251 509.391 284.251 508.968 286.034 C 506.465 287.812 503.966 287.703 501.02 287.666 C 500.577 287.672 500.135 287.677 499.678 287.683 C 496.938 287.671 494.908 287.44 492.529 286.034 C 490.954 284.187 490.894 282.61 490.927 280.232 C 490.929 279.654 490.931 279.076 490.933 278.48 C 491.078 276.857 491.206 275.823 492.045 274.43 C 494.475 272.697 496.854 272.76 499.721 272.799 Z M 493.979 276.364 C 493.82 277.162 493.66 277.96 493.496 278.782 C 497.963 278.782 502.431 278.782 507.034 278.782 C 506.796 276.431 506.796 276.431 505.583 275.397 C 502.034 274.148 497.138 274.282 493.979 276.364 Z" style="fill: rgb(255, 255, 255);"/><path d="M 411.241 272.799 C 411.865 272.79 411.865 272.79 412.501 272.782 C 415.314 272.794 417.47 273.177 420.005 274.43 C 420.972 276.364 420.972 276.364 420.972 280.716 C 415.707 280.716 410.441 280.716 405.017 280.716 C 405.553 283.97 405.553 283.97 407.007 284.79 C 408.791 285.145 410.519 285.189 412.329 285.158 C 412.675 285.158 413.021 285.157 413.378 285.157 C 414.905 285.144 416.129 285.07 417.587 284.584 C 417.906 284.105 418.226 283.626 418.554 283.133 C 419.823 282.801 419.823 282.801 420.972 282.65 C 420.911 284.251 420.911 284.251 420.488 286.034 C 417.986 287.812 415.486 287.703 412.541 287.666 C 412.098 287.672 411.655 287.677 411.199 287.683 C 408.459 287.671 406.429 287.44 404.05 286.034 C 402.475 284.187 402.415 282.61 402.448 280.232 C 402.45 279.654 402.452 279.076 402.454 278.48 C 402.598 276.857 402.727 275.823 403.566 274.43 C 405.995 272.697 408.374 272.76 411.241 272.799 Z M 405.5 276.364 C 405.34 277.162 405.181 277.96 405.017 278.782 C 409.484 278.782 413.951 278.782 418.554 278.782 C 418.317 276.431 418.317 276.431 417.104 275.397 C 413.555 274.148 408.659 274.282 405.5 276.364 Z" style="fill: rgb(255, 255, 255);"/><path d="M 124.046 272.799 C 124.67 272.79 124.67 272.79 125.306 272.782 C 128.119 272.794 130.275 273.177 132.81 274.43 C 133.777 276.364 133.777 276.364 133.777 280.716 C 128.511 280.716 123.246 280.716 117.821 280.716 C 118.358 283.97 118.358 283.97 119.812 284.79 C 121.596 285.145 123.324 285.189 125.134 285.158 C 125.48 285.158 125.826 285.157 126.182 285.157 C 127.709 285.144 128.934 285.07 130.392 284.584 C 130.711 284.105 131.03 283.626 131.359 283.133 C 132.628 282.801 132.628 282.801 133.777 282.65 C 133.716 284.251 133.716 284.251 133.293 286.034 C 130.791 287.812 128.291 287.703 125.346 287.666 C 124.903 287.672 124.46 287.677 124.004 287.683 C 121.263 287.671 119.233 287.44 116.854 286.034 C 115.28 284.187 115.219 282.61 115.253 280.232 C 115.255 279.654 115.256 279.076 115.258 278.48 C 115.403 276.857 115.532 275.823 116.371 274.43 C 118.8 272.697 121.179 272.76 124.046 272.799 Z M 118.305 276.364 C 118.145 277.162 117.986 277.96 117.821 278.782 C 122.289 278.782 126.756 278.782 131.359 278.782 C 131.121 276.431 131.121 276.431 129.909 275.397 C 126.359 274.148 121.464 274.282 118.305 276.364 Z" style="fill: rgb(255, 255, 255);"/><path d="M 262.749 274.134 C 264.14 275.93 263.942 278.011 263.957 280.172 C 263.967 280.514 263.977 280.856 263.987 281.209 C 264.004 283.388 263.844 284.858 262.386 286.518 C 259.937 287.751 257.363 287.646 254.68 287.636 C 254.051 287.648 254.051 287.648 253.408 287.659 C 250.718 287.661 248.771 287.406 246.431 286.034 C 244.872 284.199 244.783 282.624 244.799 280.263 C 244.795 279.69 244.791 279.117 244.787 278.527 C 244.998 276.695 245.484 275.519 246.431 273.947 C 249.923 271.418 259.357 271.447 262.749 274.134 Z M 248.365 275.881 C 247.016 278.227 247.223 281.049 247.881 283.617 C 248.817 284.81 249.305 285.059 250.782 285.551 C 256.09 285.923 256.09 285.923 260.935 284.1 C 261.729 281.718 261.657 279.314 261.086 276.878 C 260.231 275.534 259.549 275.385 258.034 274.914 C 256.401 274.761 256.401 274.761 254.68 274.793 C 254.107 274.791 253.535 274.788 252.945 274.785 C 251.245 274.916 249.928 275.208 248.365 275.881 Z" style="fill: rgb(255, 255, 255);"/><path d="M 478.145 272.859 C 478.594 272.849 479.044 272.839 479.507 272.829 C 482.275 272.813 484.326 272.994 486.727 274.43 C 487.442 275.734 487.473 276.798 487.694 278.298 C 486.737 278.298 485.779 278.298 484.793 278.298 C 484.633 277.501 484.474 276.703 484.309 275.881 C 480.892 275.121 476.331 274.551 473.189 276.364 C 472.08 278.216 472.172 279.731 472.403 281.834 C 472.457 282.351 472.511 282.867 472.566 283.4 C 472.612 283.79 472.658 284.181 472.706 284.584 C 474.75 284.969 476.699 285.146 478.78 285.158 C 479.573 285.168 479.573 285.168 480.383 285.179 C 481.908 285.066 482.958 284.806 484.309 284.1 C 484.738 283.113 484.738 283.113 484.793 282.166 C 485.75 282.166 486.708 282.166 487.694 282.166 C 487.457 285.304 487.457 285.304 486.304 286.457 C 483.93 287.714 481.731 287.591 479.112 287.606 C 478.472 287.621 478.472 287.621 477.82 287.636 C 475.098 287.652 473.138 287.43 470.772 286.034 C 468.784 283.717 469.019 280.991 469.115 278.085 C 469.398 275.725 469.897 274.92 471.739 273.463 C 473.86 272.756 475.922 272.871 478.145 272.859 Z" style="fill: rgb(255, 255, 255);"/><path d="M 268.188 272.98 C 268.986 272.98 269.783 272.98 270.605 272.98 C 270.615 273.28 270.624 273.58 270.634 273.889 C 270.68 275.248 270.733 276.607 270.787 277.966 C 270.802 278.438 270.817 278.91 270.832 279.397 C 270.851 279.85 270.869 280.303 270.889 280.771 C 270.904 281.188 270.919 281.606 270.935 282.037 C 271.027 283.267 271.027 283.267 272.056 284.584 C 274.684 285.559 277.832 285.28 280.517 284.705 C 281.944 283.991 282.121 283.617 282.693 282.166 C 282.867 281.095 282.867 281.095 282.893 279.968 C 282.912 279.56 282.93 279.151 282.949 278.731 C 282.964 278.309 282.979 277.887 282.995 277.452 C 283.013 277.023 283.032 276.593 283.051 276.151 C 283.097 275.094 283.138 274.037 283.176 272.98 C 283.974 272.98 284.772 272.98 285.594 272.98 C 285.594 277.767 285.594 282.553 285.594 287.485 C 284.796 287.485 283.998 287.485 283.176 287.485 C 283.017 287.166 282.857 286.847 282.693 286.518 C 282.214 286.837 281.735 287.156 281.242 287.485 C 277.907 288.466 273.316 288.449 270.122 287.001 C 268.759 285.901 268.242 285.044 268.036 283.299 C 267.997 281.738 268.02 280.191 268.067 278.631 C 268.08 277.817 268.08 277.817 268.093 276.987 C 268.116 275.651 268.148 274.316 268.188 272.98 Z" style="fill: rgb(255, 255, 255);"/><path d="M 191.312 273.947 C 192.571 275.698 192.94 276.889 192.904 279.033 C 192.897 279.774 192.897 279.774 192.89 280.53 C 192.878 281.04 192.866 281.55 192.853 282.076 C 192.844 282.855 192.844 282.855 192.834 283.65 C 192.817 284.928 192.793 286.206 192.763 287.485 C 191.965 287.485 191.167 287.485 190.345 287.485 C 190.333 287.217 190.321 286.948 190.309 286.672 C 190.252 285.452 190.193 284.232 190.134 283.012 C 190.115 282.59 190.096 282.169 190.076 281.734 C 190.056 281.326 190.036 280.917 190.015 280.497 C 189.997 280.122 189.979 279.747 189.961 279.361 C 189.862 278.299 189.735 277.371 189.378 276.364 C 186.532 274.941 183.224 275.036 180.192 275.82 C 178.688 276.197 178.688 276.197 178.258 277.331 C 178.185 278.101 178.138 278.874 178.105 279.647 C 178.085 280.102 178.064 280.557 178.044 281.026 C 178.015 281.74 178.015 281.74 177.986 282.469 C 177.965 282.948 177.944 283.428 177.923 283.923 C 177.871 285.11 177.822 286.297 177.774 287.485 C 176.977 287.485 176.179 287.485 175.357 287.485 C 175.357 282.698 175.357 277.912 175.357 272.98 C 176.155 272.98 176.953 272.98 177.774 272.98 C 177.934 273.299 178.094 273.618 178.258 273.947 C 178.737 273.628 179.215 273.309 179.708 272.98 C 183.298 271.892 188.041 271.987 191.312 273.947 Z" style="fill: rgb(255, 255, 255);"/><path d="M 229.508 269.595 C 230.306 269.595 231.104 269.595 231.926 269.595 C 231.926 270.712 231.926 271.829 231.926 272.98 C 235.276 272.98 238.627 272.98 242.079 272.98 C 242.079 273.618 242.079 274.256 242.079 274.914 C 238.729 274.914 235.378 274.914 231.926 274.914 C 231.996 276.24 232.065 277.566 232.137 278.933 C 232.158 279.349 232.179 279.765 232.2 280.193 C 232.219 280.523 232.237 280.854 232.256 281.194 C 232.274 281.53 232.292 281.867 232.31 282.214 C 232.388 283.24 232.388 283.24 232.893 284.584 C 234.828 285.551 237.186 285.248 239.178 284.584 C 239.338 283.307 239.497 282.031 239.662 280.716 C 240.459 280.716 241.257 280.716 242.079 280.716 C 242.145 281.389 242.192 282.065 242.23 282.74 C 242.258 283.116 242.286 283.492 242.315 283.879 C 241.952 285.705 241.126 286.377 239.662 287.485 C 237.924 287.772 237.924 287.772 236.035 287.727 C 235.412 287.722 234.789 287.717 234.147 287.711 C 232.36 287.478 231.414 287.117 229.992 286.034 C 229.399 284.848 229.453 284.076 229.461 282.752 C 229.463 282.069 229.463 282.069 229.466 281.373 C 229.47 280.897 229.474 280.421 229.478 279.93 C 229.48 279.45 229.482 278.97 229.485 278.476 C 229.49 277.289 229.498 276.101 229.508 274.914 C 228.391 274.914 227.275 274.914 226.124 274.914 C 226.124 274.276 226.124 273.637 226.124 272.98 C 227.241 272.98 228.358 272.98 229.508 272.98 C 229.508 271.863 229.508 270.746 229.508 269.595 Z" style="fill: rgb(255, 255, 255);"/><path d="M 41.913 269.595 C 42.711 269.595 43.508 269.595 44.33 269.595 C 44.33 270.712 44.33 271.829 44.33 272.98 C 47.681 272.98 51.031 272.98 54.484 272.98 C 54.484 273.618 54.484 274.256 54.484 274.914 C 51.133 274.914 47.782 274.914 44.33 274.914 C 44.4 276.24 44.47 277.566 44.542 278.933 C 44.563 279.349 44.583 279.765 44.605 280.193 C 44.623 280.523 44.642 280.854 44.661 281.194 C 44.678 281.53 44.696 281.867 44.714 282.214 C 44.792 283.24 44.792 283.24 45.297 284.584 C 47.233 285.551 49.591 285.248 51.583 284.584 C 51.742 283.307 51.902 282.031 52.066 280.716 C 52.864 280.716 53.662 280.716 54.484 280.716 C 54.55 281.389 54.596 282.065 54.635 282.74 C 54.663 283.116 54.691 283.492 54.72 283.879 C 54.357 285.705 53.531 286.377 52.066 287.485 C 50.329 287.772 50.329 287.772 48.44 287.727 C 47.817 287.722 47.193 287.717 46.551 287.711 C 44.765 287.478 43.818 287.117 42.396 286.034 C 41.803 284.848 41.858 284.076 41.866 282.752 C 41.868 282.069 41.868 282.069 41.87 281.373 C 41.874 280.897 41.878 280.421 41.883 279.93 C 41.885 279.45 41.887 278.97 41.889 278.476 C 41.895 277.289 41.903 276.101 41.913 274.914 C 40.796 274.914 39.679 274.914 38.528 274.914 C 38.528 274.276 38.528 273.637 38.528 272.98 C 39.645 272.98 40.762 272.98 41.913 272.98 C 41.913 271.863 41.913 270.746 41.913 269.595 Z" style="fill: rgb(255, 255, 255);"/><path d="M 441.279 272.98 C 442.395 272.98 443.512 272.98 444.663 272.98 C 447.774 278.724 447.774 278.724 450.948 284.584 C 451.982 283.206 452.842 281.948 453.687 280.468 C 454.037 279.859 454.037 279.859 454.393 279.238 C 454.633 278.818 454.872 278.398 455.119 277.966 C 455.598 277.128 456.077 276.29 456.558 275.452 C 456.874 274.897 456.874 274.897 457.197 274.331 C 457.717 273.463 457.717 273.463 458.201 272.98 C 459.168 272.96 460.135 272.959 461.102 272.98 C 459.436 276.495 457.606 279.874 455.632 283.224 C 455.31 283.771 455.31 283.771 454.981 284.33 C 453.434 286.933 453.434 286.933 452.882 287.485 C 451.341 287.817 451.341 287.817 449.498 287.485 C 448.225 286.074 447.472 284.325 446.597 282.65 C 445.662 281.021 444.707 279.404 443.756 277.785 C 443.283 276.974 442.811 276.163 442.34 275.35 C 442.136 274.999 441.931 274.647 441.721 274.285 C 441.279 273.463 441.279 273.463 441.279 272.98 Z" style="fill: rgb(255, 255, 255);"/><path d="M 94.614 272.98 C 95.73 272.98 96.847 272.98 97.998 272.98 C 101.109 278.724 101.109 278.724 104.283 284.584 C 105.317 283.206 106.177 281.948 107.022 280.468 C 107.372 279.859 107.372 279.859 107.728 279.238 C 107.968 278.818 108.207 278.398 108.454 277.966 C 108.933 277.128 109.412 276.29 109.893 275.452 C 110.209 274.897 110.209 274.897 110.532 274.331 C 111.052 273.463 111.052 273.463 111.536 272.98 C 112.503 272.96 113.47 272.959 114.437 272.98 C 112.771 276.495 110.941 279.874 108.967 283.224 C 108.645 283.771 108.645 283.771 108.316 284.33 C 106.769 286.933 106.769 286.933 106.217 287.485 C 104.676 287.817 104.676 287.817 102.833 287.485 C 101.56 286.074 100.807 284.325 99.932 282.65 C 98.997 281.021 98.042 279.404 97.091 277.785 C 96.618 276.974 96.146 276.163 95.675 275.35 C 95.471 274.999 95.266 274.647 95.056 274.285 C 94.614 273.463 94.614 273.463 94.614 272.98 Z" style="fill: rgb(255, 255, 255);"/><path d="M 434.751 272.587 C 435.285 272.614 435.818 272.641 436.368 272.668 C 438.17 273.036 439.014 273.628 440.312 274.914 C 440.871 276.593 440.828 277.989 440.795 279.749 C 439.997 279.749 439.2 279.749 438.378 279.749 C 438.29 279.475 438.202 279.202 438.111 278.92 C 437.99 278.565 437.868 278.21 437.743 277.845 C 437.566 277.315 437.566 277.315 437.386 276.774 C 436.969 275.707 436.969 275.707 435.477 275.397 C 433.083 275.205 430.852 275.158 428.708 276.364 C 428.126 277.527 428.126 278.348 428.071 279.647 C 428.051 280.102 428.031 280.557 428.01 281.026 C 427.981 281.74 427.981 281.74 427.952 282.468 C 427.931 282.948 427.91 283.428 427.889 283.923 C 427.838 285.11 427.788 286.297 427.741 287.485 C 426.943 287.485 426.145 287.485 425.323 287.485 C 425.323 282.698 425.323 277.912 425.323 272.98 C 426.613 272.98 427.902 272.98 429.191 272.98 C 429.555 272.898 429.919 272.817 430.294 272.733 C 431.83 272.457 433.195 272.491 434.751 272.587 Z" style="fill: rgb(255, 255, 255);"/><path d="M 299.857 272.587 C 300.39 272.614 300.924 272.641 301.473 272.668 C 303.275 273.036 304.119 273.628 305.417 274.914 C 305.977 276.593 305.933 277.989 305.9 279.749 C 305.103 279.749 304.305 279.749 303.483 279.749 C 303.395 279.475 303.307 279.202 303.217 278.92 C 303.095 278.565 302.973 278.21 302.848 277.845 C 302.672 277.315 302.672 277.315 302.491 276.774 C 302.075 275.707 302.075 275.707 300.582 275.397 C 298.188 275.205 295.957 275.158 293.813 276.364 C 293.231 277.527 293.231 278.348 293.176 279.647 C 293.156 280.102 293.136 280.557 293.115 281.026 C 293.087 281.74 293.087 281.74 293.057 282.468 C 293.037 282.948 293.016 283.428 292.994 283.923 C 292.943 285.11 292.894 286.297 292.846 287.485 C 292.048 287.485 291.25 287.485 290.429 287.485 C 290.429 282.698 290.429 277.912 290.429 272.98 C 291.718 272.98 293.007 272.98 294.296 272.98 C 294.66 272.898 295.024 272.817 295.399 272.733 C 296.935 272.457 298.3 272.491 299.857 272.587 Z" style="fill: rgb(255, 255, 255);"/><path d="M 66.813 272.587 C 67.346 272.614 67.88 272.641 68.429 272.668 C 70.231 273.036 71.075 273.628 72.373 274.914 C 72.933 276.593 72.89 277.989 72.856 279.749 C 72.059 279.749 71.261 279.749 70.439 279.749 C 70.351 279.475 70.263 279.202 70.173 278.92 C 70.051 278.565 69.93 278.21 69.804 277.845 C 69.628 277.315 69.628 277.315 69.447 276.774 C 69.031 275.707 69.031 275.707 67.538 275.397 C 65.144 275.205 62.913 275.158 60.769 276.364 C 60.188 277.527 60.187 278.348 60.133 279.647 C 60.112 280.102 60.092 280.557 60.071 281.026 C 60.043 281.74 60.043 281.74 60.014 282.468 C 59.993 282.948 59.972 283.428 59.95 283.923 C 59.899 285.11 59.85 286.297 59.802 287.485 C 59.004 287.485 58.207 287.485 57.385 287.485 C 57.385 282.698 57.385 277.912 57.385 272.98 C 58.674 272.98 59.963 272.98 61.253 272.98 C 61.616 272.898 61.98 272.817 62.355 272.733 C 63.891 272.457 65.256 272.491 66.813 272.587 Z" style="fill: rgb(255, 255, 255);"/><path d="M 138.611 267.178 C 139.409 267.178 140.207 267.178 141.029 267.178 C 141.029 273.879 141.029 280.58 141.029 287.485 C 140.231 287.485 139.433 287.485 138.611 287.485 C 138.611 280.784 138.611 274.082 138.611 267.178 Z" style="fill: rgb(255, 255, 255);"/><path d="M 462.552 272.98 C 463.35 272.98 464.148 272.98 464.97 272.98 C 464.97 277.767 464.97 282.553 464.97 287.485 C 464.172 287.485 463.374 287.485 462.552 287.485 C 462.552 282.698 462.552 277.912 462.552 272.98 Z" style="fill: rgb(255, 255, 255);"/><path d="M 308.801 272.98 C 309.599 272.98 310.397 272.98 311.219 272.98 C 311.219 277.767 311.219 282.553 311.219 287.485 C 310.421 287.485 309.623 287.485 308.801 287.485 C 308.801 282.698 308.801 277.912 308.801 272.98 Z" style="fill: rgb(255, 255, 255);"/><path d="M 462.552 267.178 C 463.35 267.178 464.148 267.178 464.97 267.178 C 464.97 267.976 464.97 268.774 464.97 269.595 C 464.172 269.595 463.374 269.595 462.552 269.595 C 462.552 268.798 462.552 268 462.552 267.178 Z" style="fill: rgb(255, 255, 255);"/><path d="M 308.801 267.178 C 309.599 267.178 310.397 267.178 311.219 267.178 C 311.219 267.976 311.219 268.774 311.219 269.595 C 310.421 269.595 309.623 269.595 308.801 269.595 C 308.801 268.798 308.801 268 308.801 267.178 Z" style="fill: rgb(255, 255, 255);"/></g></svg>